<?xml version="1.0" standalone="no"?>
<!DOCTYPE svg PUBLIC "-//W3C//DTD SVG 20010904//EN"
 "http://www.w3.org/TR/2001/REC-SVG-20010904/DTD/svg10.dtd">
<svg version="1.0" xmlns="http://www.w3.org/2000/svg"
 width="261.000000pt" height="261.000000pt" viewBox="0 0 261.000000 261.000000"
 preserveAspectRatio="xMidYMid meet">
<metadata>
Created by potrace 1.11, written by Peter Selinger 2001-2013
</metadata>
<g transform="translate(0.000000,261.000000) scale(0.100000,-0.100000)"
fill="#000000" stroke="none">
<path d="M1165 2570 c-88 -22 -248 -61 -355 -86 -107 -25 -240 -57 -295 -70
-362 -86 -428 -104 -446 -120 -18 -17 -19 -37 -19 -614 l0 -598 -25 -16 -25
-16 0 -214 c0 -190 2 -215 18 -228 14 -13 229 -144 361 -221 21 -12 167 -100
326 -196 198 -120 297 -174 316 -173 24 1 56 12 214 82 22 10 193 84 380 165
187 81 358 156 380 166 32 14 381 166 541 235 54 23 57 31 58 205 1 150 -1
163 -19 181 -11 10 -90 55 -175 99 -325 168 -486 252 -502 263 -10 6 -22 22
-27 36 -6 15 -10 212 -10 480 1 250 0 467 0 482 -1 34 -37 68 -72 68 -15 0
-103 -18 -196 -40 -92 -22 -265 -63 -383 -91 -118 -27 -280 -66 -360 -85 -80
-20 -154 -38 -165 -40 -98 -24 -147 -27 -197 -15 -65 17 -93 30 -82 41 8 7
246 66 524 130 263 61 477 114 492 121 10 5 23 19 29 30 9 17 7 27 -8 48 -30
39 -88 37 -278 -9z m519 -256 c14 -5 16 -48 16 -383 0 -207 -4 -382 -9 -390
-7 -11 -18 -9 -62 12 -30 14 -64 28 -76 32 -19 5 -150 -32 -228 -65 -11 -5
-153 -54 -315 -109 -162 -56 -305 -106 -318 -111 -35 -15 -60 -12 -70 8 -5 9
-8 180 -8 378 1 281 4 365 15 377 15 18 41 27 166 56 50 11 165 38 257 60 91
22 180 43 197 46 16 3 43 10 58 16 15 6 28 9 28 8 0 -3 191 41 245 56 51 15
81 18 104 9z m-1341 -197 c95 -30 107 -43 107 -123 l0 -65 -27 5 c-76 13 -103
21 -156 48 l-57 28 1 53 c1 28 6 60 11 70 10 19 6 20 121 -16z m-60 -192 c36
-13 88 -27 116 -31 l51 -7 1 -131 c0 -72 1 -155 1 -185 0 -32 -5 -57 -13 -61
-16 -11 -124 20 -179 51 l-45 24 -2 183 c-1 100 0 182 2 182 1 0 32 -11 68
-25z m58 -444 c24 -6 58 -12 74 -14 l30 -4 0 -113 c0 -109 -1 -113 -25 -131
-14 -10 -60 -28 -103 -41 -107 -31 -105 -33 -105 175 0 89 2 165 5 169 2 5 21
-1 42 -12 21 -10 58 -24 82 -29z m1357 -117 c81 -42 203 -106 272 -142 389
-203 367 -189 348 -207 -7 -7 -209 -92 -448 -189 -239 -97 -444 -181 -455
-186 -11 -5 -60 -25 -110 -45 -49 -21 -116 -48 -148 -61 -37 -15 -69 -22 -88
-19 -16 3 -154 80 -306 171 -153 91 -329 195 -391 232 -68 41 -111 73 -110 81
2 8 35 25 73 39 113 39 512 178 745 258 118 40 258 89 310 108 52 19 110 35
128 36 21 0 81 -25 180 -76z m716 -470 c23 -9 22 -95 -1 -123 -22 -26 -1311
-590 -1366 -598 -36 -5 -63 10 -425 228 -479 288 -450 269 -460 299 -7 20 -9
117 -3 160 2 19 26 10 116 -43 50 -30 236 -141 414 -247 179 -106 339 -197
356 -203 27 -8 45 -4 121 27 69 28 555 228 1231 505 1 1 8 -2 17 -5z"/>
<path d="M1355 1336 c-88 -29 -168 -57 -177 -62 -27 -15 -18 -22 97 -84 324
-175 531 -283 540 -283 23 0 315 138 315 149 0 7 -17 20 -37 31 -79 40 -298
156 -308 163 -16 12 -262 140 -266 139 -2 -1 -76 -24 -164 -53z m427 -133
c141 -76 258 -141 258 -144 0 -5 -52 -31 -171 -83 l-55 -24 -185 100 c-101 54
-229 122 -283 151 l-99 52 129 42 c71 23 133 42 138 42 5 1 126 -61 268 -136z"/>
</g>
</svg>
